<?xml version="1.0" encoding="utf-8"?>
<!-- Generator: Adobe Illustrator 16.0.0, SVG Export Plug-In . SVG Version: 6.00 Build 0)  -->
<!DOCTYPE svg PUBLIC "-//W3C//DTD SVG 1.1//EN" "http://www.w3.org/Graphics/SVG/1.1/DTD/svg11.dtd">
<svg version="1.1" xmlns="http://www.w3.org/2000/svg" xmlns:xlink="http://www.w3.org/1999/xlink" x="0px" y="0px" width="300px"
	 height="300px" viewBox="0 0 300 300" enable-background="new 0 0 300 300" xml:space="preserve">
<g id="Ebene_3">
	<g>
		<path fill="#FCD63F" stroke="#4C2222" stroke-miterlimit="10" d="M66.966,89.745v31h38.104l-0.042,112.984l29.922,0.016V120.729
			l30.984-0.016l-0.006,90.031c0,19.392-19.525,39.028-37.525,39.028c30.375,0,66.674-5.013,67.527-35.575l0.031-93.475
			l38.938,0.062l0.141-31.04H66.966z"/>
		<path fill="#FCD63F" stroke="#4C2222" stroke-miterlimit="10" d="M150,0.5C67.43,0.5,0.5,67.439,0.5,150
			c0,82.57,66.93,149.5,149.5,149.5c82.558,0,149.497-66.93,149.497-149.5C299.498,67.439,232.558,0.5,150,0.5z M149.871,273.66
			c-67.93,0-123-55.07-123-123c0-67.931,55.07-123,123-123c67.926,0,122.996,55.069,122.996,123
			C272.867,218.59,217.796,273.66,149.871,273.66z"/>
	</g>
	<g id="Ebene_2">
	</g>
</g>
<g id="Ebene_4">
</g>
</svg>
